<?xml version="1.0" encoding="UTF-8"?>
<svg width="58px" height="50px" viewBox="0 0 58 50" version="1.1" xmlns="http://www.w3.org/2000/svg" xmlns:xlink="http://www.w3.org/1999/xlink">
    <!-- Generator: sketchtool 48.2 (47327) - http://www.bohemiancoding.com/sketch -->
    <title>6DA1BEA2-F334-4CB4-8804-4D5648464CD6</title>
    <desc>Created with sketchtool.</desc>
    <defs>
        <linearGradient x1="70.0517893%" y1="16.259797%" x2="70.0517893%" y2="100%" id="linearGradient-1">
            <stop stop-color="#0099D7" offset="0%"></stop>
            <stop stop-color="#1D578E" offset="100%"></stop>
        </linearGradient>
        <linearGradient x1="50%" y1="111.873046%" x2="50%" y2="0%" id="linearGradient-2">
            <stop stop-color="#0099D7" offset="0%"></stop>
            <stop stop-color="#1D578E" offset="100%"></stop>
        </linearGradient>
    </defs>
    <g id="assets" stroke="none" stroke-width="1" fill="none" fill-rule="evenodd" transform="translate(-60.000000, -43.000000)">
        <g id="FFESSM---Logo-quadri" transform="translate(60.000000, 43.000000)">
            <path d="M51.1467626,10.7071942 C51.2366906,11.7978417 50.4255396,12.7553957 49.3348921,12.8453237 C48.2438849,12.9356115 47.2866906,12.1244604 47.1964029,11.0334532 C47.1064748,9.94280576 47.9176259,8.9852518 49.0082734,8.89532374 C50.0992806,8.80503597 51.0564748,9.61618705 51.1467626,10.7071942" id="Fill-1" fill="#D8232A"></path>
            <polygon id="Clip-3" fill="#D8232A" points="0.0215827338 22.9798561 57.2129496 22.9798561 57.2129496 24.1007194 0.0215827338 24.1007194"></polygon>
            <path d="M16.3758993,14.6535971 C16.3154676,14.6748201 16.2755396,14.6881295 16.2755396,14.6881295 L16.2895683,14.6672662 C11.2683453,15.4510791 8.21906475,14.5064748 4.63345324,11.6305755 C0.232733813,8.10395683 0.154676259,4.58956835 0.154676259,4.58956835 C7.78920863,16.8309353 26.1165468,2.74460432 41.1992806,0.34352518 C41.2597122,0.323021583 41.2992806,0.308992806 41.2992806,0.308992806 L41.2852518,0.33057554 C46.3068345,-0.45323741 49.3553957,0.490647482 52.9410072,3.3676259 C57.3420863,6.8942446 57.4201439,10.407554 57.4201439,10.407554 C49.7834532,-1.8352518 31.4593525,12.2528777 16.3758993,14.6535971 Z" id="Clip-6" fill="url(#linearGradient-1)"></path>
            <path d="M41.1992806,0.34352518 C41.2597122,0.323021583 41.2992806,0.308992806 41.2992806,0.308992806 L41.2852518,0.33057554 C46.3068345,-0.45323741 49.3553957,0.490647482 52.9410072,3.3676259 C57.3420863,6.8942446 57.4201439,10.407554 57.4201439,10.407554 C49.6672662,-5.69208633 31.2316547,7.35215827 17.9258993,11.3169065 C4.62122302,15.2827338 0.154676259,4.58956835 0.154676259,4.58956835 C7.78920863,16.8309353 26.1165468,2.74460432 41.1992806,0.34352518 Z" id="Clip-9" fill="url(#linearGradient-2)"></path>
            <polyline id="Fill-13" fill="#006DAA" points="16.0636691 31.3971223 22.8733813 31.3971223 22.8733813 35.0705036 20.147482 35.0705036 20.147482 38.5510791 22.6985612 38.5510791 22.6985612 42.0431655 20.147482 42.0431655 20.147482 46.0791367 23.1446043 46.0791367 23.1446043 49.752518 16.0636691 49.752518 16.0636691 31.3971223"></polyline>
            <path d="M32.9647482,36.923741 L29.1413669,36.923741 L29.1413669,35.5521583 C29.1413669,34.9118705 29.092446,34.5046763 28.9946043,34.3291367 C28.8967626,34.1543165 28.7338129,34.0661871 28.5057554,34.0661871 C28.2579137,34.0661871 28.0705036,34.1845324 27.9435252,34.4208633 C27.8161871,34.657554 27.8604317,35.0154676 27.8604317,35.4960432 C27.8604317,36.1136691 27.8241007,36.578777 27.9672662,36.8913669 C28.1035971,37.2039568 28.4913669,37.5809353 29.1305755,38.0223022 C30.9633094,39.2938849 32.4399281,40.6593525 32.9161871,41.4748201 C33.3917266,42.2902878 33.3068345,43.2816547 33.3068345,45.094964 C33.3068345,46.4133094 33.1748201,47.3845324 32.9111511,48.0093525 C32.6467626,48.6338129 32.1370504,49.157554 31.3805755,49.5805755 C30.6241007,50.0035971 29.7442446,49.9996403 28.7406475,49.9996403 C27.6388489,49.9996403 26.6982014,49.9708633 25.9194245,49.4834532 C25.1402878,48.9960432 24.6302158,48.3748201 24.3888489,47.6205036 C24.1478417,46.8661871 24.0273381,45.7960432 24.0273381,44.4089928 L24.0273381,43.1978417 L27.8507194,43.1978417 L27.8507194,45.4492806 C27.8507194,46.1428058 27.9046763,46.5884892 28.0118705,46.7863309 C28.1194245,46.9841727 28.3100719,47.0834532 28.5841727,47.0834532 C28.8579137,47.0834532 29.0615108,46.9579137 29.1953237,46.7064748 C29.328777,46.455036 29.2881295,46.0816547 29.2881295,45.5863309 C29.2881295,44.4967626 29.2683453,43.7845324 29.0143885,43.4492806 C28.7535971,43.1140288 28.1111511,42.5539568 27.0877698,41.7690647 C26.0643885,40.9766187 25.3866906,40.4017986 25.0539568,40.0435252 C24.7215827,39.6852518 24.3384892,39.1899281 24.1201439,38.5579137 C23.9017986,37.9255396 23.9,37.1179856 23.9,36.1348921 C23.9,34.7176259 24.0546763,33.6816547 24.3647482,33.026259 C24.6741007,32.3708633 25.1744604,31.8589928 25.8658273,31.4892086 C26.5564748,31.1197842 27.3910072,31.15 28.3690647,31.15 C29.4381295,31.15 30.3492806,31.1366906 31.1021583,31.5406475 C31.8546763,31.9446043 32.3535971,32.4532374 32.5982014,33.0661871 C32.842446,33.6798561 32.9647482,34.7215827 32.9647482,36.1920863 L32.9647482,36.923741" id="Fill-15" fill="#006DAA"></path>
            <path d="M43.3201439,36.923741 L39.4971223,36.923741 L39.4971223,35.5521583 C39.4971223,34.9118705 39.4478417,34.5046763 39.35,34.3291367 C39.252518,34.1543165 39.0895683,34.0661871 38.8611511,34.0661871 C38.6133094,34.0661871 38.426259,34.1845324 38.2989209,34.4208633 C38.1719424,34.657554 38.2158273,35.0154676 38.2158273,35.4960432 C38.2158273,36.1136691 38.1794964,36.578777 38.3226619,36.8913669 C38.4593525,37.2039568 38.8467626,37.5809353 39.4859712,38.0223022 C41.318705,39.2938849 42.7953237,40.4446043 43.2715827,41.2593525 C43.7471223,42.0751799 43.6625899,43.2816547 43.6625899,45.094964 C43.6625899,46.4133094 43.5302158,47.3845324 43.2665468,48.0093525 C43.002518,48.6338129 42.492446,49.157554 41.7359712,49.5805755 C40.9798561,50.0035971 40.0996403,49.9996403 39.0960432,49.9996403 C37.9942446,49.9996403 37.0539568,49.9708633 36.2748201,49.4834532 C35.4956835,48.9960432 34.9856115,48.3748201 34.7446043,47.6205036 C34.5032374,46.8661871 34.3827338,45.7960432 34.3827338,44.4089928 L34.3827338,43.1978417 L38.2061151,43.1978417 L38.2061151,45.4492806 C38.2061151,46.1428058 38.2597122,46.5884892 38.3676259,46.7863309 C38.4751799,46.9841727 38.6658273,47.0834532 38.9395683,47.0834532 C39.2129496,47.0834532 39.4169065,46.9579137 39.5507194,46.7064748 C39.6841727,46.455036 39.6435252,46.0816547 39.6435252,45.5863309 C39.6435252,44.4967626 39.623741,43.7845324 39.3697842,43.4492806 C39.1086331,43.1140288 38.4665468,42.5539568 37.4435252,41.7690647 C36.4197842,40.9766187 35.7420863,40.4017986 35.4093525,40.0435252 C35.0766187,39.6852518 34.6938849,39.1899281 34.4755396,38.5579137 C34.2571942,37.9255396 34.2553957,37.1179856 34.2553957,36.1348921 C34.2553957,34.7176259 34.4104317,33.6816547 34.7201439,33.026259 C35.0298561,32.3708633 35.5298561,31.8589928 36.221223,31.4892086 C36.9118705,31.1197842 37.7464029,31.15 38.7244604,31.15 C39.7935252,31.15 40.7046763,31.1366906 41.457554,31.5406475 C42.2100719,31.9446043 42.7089928,32.4532374 42.9535971,33.0661871 C43.1982014,33.6798561 43.3201439,34.7215827 43.3201439,36.1920863 L43.3201439,36.923741" id="Fill-16" fill="#006DAA"></path>
            <path d="M57.4651079,31.3971223 L57.4651079,49.752518 L53.8953237,49.752518 L53.8902878,37.3607914 L52.4690647,49.752518 L49.9374101,49.752518 L48.4384892,37.6442446 L48.4338129,49.752518 L44.8640288,49.752518 L44.8640288,31.3971223 L50.1482014,31.3971223 C50.305036,32.5010791 50.4669065,33.8014388 50.6330935,35.2992806 L51.2129496,39.9683453 L52.1514388,31.3971223 L57.4651079,31.3971223" id="Fill-17" fill="#006DAA"></path>
            <polyline id="Fill-11" fill="#006DAA" points="0.251798561 31.3971223 7.16834532 31.3971223 7.16834532 35.0705036 4.33561151 35.0705036 4.33561151 38.5510791 6.85791367 38.5510791 6.85791367 42.0431655 4.33561151 42.0431655 4.33561151 49.752518 0.251798561 49.752518 0.251798561 31.3971223"></polyline>
            <polyline id="Fill-12" fill="#006DAA" points="8.15791367 31.3971223 15.0741007 31.3971223 15.0741007 35.0705036 12.2417266 35.0705036 12.2417266 38.5510791 14.7636691 38.5510791 14.7636691 42.0431655 12.2417266 42.0431655 12.2417266 49.752518 8.15791367 49.752518 8.15791367 31.3971223"></polyline>
        </g>
    </g>
</svg>